<svg xmlns="http://www.w3.org/2000/svg" xmlns:xlink="http://www.w3.org/1999/xlink" width="500" zoomAndPan="magnify" viewBox="0 0 375 374.999991" height="500" preserveAspectRatio="xMidYMid meet" version="1.0"><defs><clipPath id="b0983f6e02"><path d="M 16.75 8 L 358 8 L 358 367 L 16.75 367 Z M 16.75 8 " clip-rule="nonzero"/></clipPath></defs><path fill="#231f20" d="M 187.507812 96.855469 C 149.78125 96.855469 119.203125 128.976562 119.203125 168.59375 C 119.203125 208.21875 149.78125 240.339844 187.507812 240.339844 C 225.230469 240.339844 255.808594 208.21875 255.808594 168.59375 C 255.808594 128.976562 225.230469 96.855469 187.507812 96.855469 " fill-opacity="1" fill-rule="nonzero"/><g clip-path="url(#b0983f6e02)"><path fill="#231f20" d="M 300.945312 311.316406 C 285.816406 274.390625 254.0625 251.296875 187.402344 251.296875 C 120.832031 251.296875 89.074219 274.332031 73.925781 311.171875 C 43.089844 279.917969 23.90625 236.0625 23.90625 187.5 C 23.90625 92.597656 97.152344 15.664062 187.507812 15.664062 C 277.859375 15.664062 351.105469 92.597656 351.105469 187.5 C 351.105469 236.140625 331.863281 280.054688 300.945312 311.316406 Z M 187.507812 8.144531 C 93.199219 8.144531 16.75 88.445312 16.75 187.5 C 16.75 239.308594 37.660156 285.988281 71.109375 318.730469 C 101.605469 348.585938 142.523438 366.855469 187.507812 366.855469 C 232.410156 366.855469 273.265625 348.648438 303.75 318.878906 C 337.285156 286.132812 358.265625 239.390625 358.265625 187.5 C 358.265625 88.445312 281.8125 8.144531 187.507812 8.144531 " fill-opacity="1" fill-rule="nonzero"/></g></svg>