<svg xmlns="http://www.w3.org/2000/svg" xmlns:xlink="http://www.w3.org/1999/xlink" width="500" zoomAndPan="magnify" viewBox="0 0 375 374.999991" height="500" preserveAspectRatio="xMidYMid meet" version="1.0"><defs><clipPath id="c638b2982b"><path d="M 34.777344 8.015625 L 340.027344 8.015625 L 340.027344 367 L 34.777344 367 Z M 34.777344 8.015625 " clip-rule="nonzero"/></clipPath></defs><g clip-path="url(#c638b2982b)"><path fill="#231f20" d="M 187.496094 366.972656 C 207.328125 366.972656 223.390625 350.910156 223.390625 331.078125 L 151.597656 331.078125 C 151.597656 350.910156 167.664062 366.972656 187.496094 366.972656 Z M 304.15625 259.285156 L 304.15625 160.574219 C 304.15625 105.382812 265.835938 59.347656 214.417969 47.144531 L 214.417969 34.9375 C 214.417969 20.042969 202.390625 8.015625 187.496094 8.015625 C 172.597656 8.015625 160.574219 20.042969 160.574219 34.9375 L 160.574219 47.144531 C 109.152344 59.347656 70.832031 105.382812 70.832031 160.574219 L 70.832031 259.285156 L 34.9375 295.183594 L 34.9375 313.128906 L 340.050781 313.128906 L 340.050781 295.183594 Z M 304.15625 259.285156 " fill-opacity="1" fill-rule="nonzero"/></g></svg>