<svg xmlns="http://www.w3.org/2000/svg" xmlns:xlink="http://www.w3.org/1999/xlink" width="500" zoomAndPan="magnify" viewBox="0 0 375 374.999991" height="500" preserveAspectRatio="xMidYMid meet" version="1.0"><defs><clipPath id="6ba7fc6a19"><path d="M 142 331 L 233 331 L 233 367.230469 L 142 367.230469 Z M 142 331 " clip-rule="nonzero"/></clipPath><clipPath id="b285e5464c"><path d="M 24.628906 9 L 350 9 L 350 319 L 24.628906 319 Z M 24.628906 9 " clip-rule="nonzero"/></clipPath></defs><g clip-path="url(#6ba7fc6a19)"><path fill="#231f20" d="M 187.378906 350.984375 C 174.441406 350.984375 162.789062 343.324219 157.570312 331.441406 L 142.703125 337.957031 C 150.492188 355.707031 168.007812 367.230469 187.378906 367.230469 C 207.035156 367.230469 224.621094 355.566406 232.269531 337.457031 L 217.328125 331.085938 C 212.183594 343.179688 200.460938 350.984375 187.378906 350.984375 Z M 187.378906 350.984375 " fill-opacity="1" fill-rule="nonzero"/></g><g clip-path="url(#b285e5464c)"><path fill="#231f20" d="M 346.925781 295.941406 L 304.035156 260.152344 C 302.179688 258.578125 301.105469 256.359375 301.105469 253.921875 L 301.105469 155.71875 C 301.105469 124.296875 288.597656 95.019531 265.867188 73.332031 C 252.5 60.589844 236.628906 51.574219 219.472656 46.5625 C 219.832031 44.058594 219.972656 41.550781 219.757812 38.902344 C 218.542969 25.015625 208.324219 13.207031 194.882812 10.199219 C 185.019531 7.980469 174.867188 10.273438 167.078125 16.5 C 159.355469 22.726562 154.925781 31.960938 154.925781 41.910156 C 154.925781 43.554688 155.210938 45.058594 155.425781 46.632812 C 107.960938 60.804688 73.648438 105.613281 73.648438 158.726562 L 73.648438 253.851562 C 73.648438 256.285156 72.578125 258.578125 70.71875 260.078125 L 27.828125 295.867188 C 25.972656 297.441406 24.898438 299.734375 24.898438 302.097656 L 24.898438 310.253906 C 24.898438 314.765625 28.542969 318.414062 33.046875 318.414062 L 341.707031 318.414062 C 346.210938 318.414062 349.855469 314.765625 349.855469 310.253906 L 349.855469 302.097656 C 349.785156 299.734375 348.714844 297.441406 346.925781 295.941406 Z M 171.078125 41.910156 C 171.078125 36.898438 173.296875 32.316406 177.15625 29.167969 C 181.085938 26.019531 186.019531 24.875 191.238281 26.019531 C 197.742188 27.523438 202.890625 33.464844 203.53125 40.261719 C 203.605469 41.195312 203.460938 42.125 203.390625 43.054688 C 196.3125 42.054688 189.164062 41.695312 181.800781 41.980469 C 178.226562 42.125 174.652344 42.480469 171.152344 43.054688 C 171.222656 42.625 171.078125 42.269531 171.078125 41.910156 Z M 45.699219 302.167969 L 81.085938 272.605469 C 86.660156 267.953125 89.875 261.152344 89.875 253.851562 L 89.875 158.726562 C 89.875 104.828125 130.621094 60.664062 182.660156 58.230469 C 209.679688 56.941406 235.199219 66.53125 254.644531 85.070312 C 274.085938 103.679688 284.808594 128.734375 284.808594 155.71875 L 284.808594 253.851562 C 284.808594 261.082031 288.023438 267.953125 293.601562 272.605469 L 328.984375 302.167969 Z M 45.699219 302.167969 " fill-opacity="1" fill-rule="nonzero"/></g></svg>